<svg width="504" height="599" viewBox="0 0 504 599" fill="none" xmlns="http://www.w3.org/2000/svg">
<path d="M114.101 522.158H73.1837L65.4498 550.838H40L78.9391 425.714H109.155L148.004 550.838H121.835L114.101 522.158ZM77.5902 503.611H109.515L93.5975 444.261L77.5902 503.611Z" fill="#1B83B8"/>
<path d="M213.852 445.166V550.838H189.301V445.166H152.97V425.714H251.262L248.744 445.166H213.852Z" fill="#1B83B8"/>
<path d="M354.16 425.714V509.401C354.16 517.906 352.421 525.506 348.944 532.201C345.527 538.835 340.521 544.053 333.926 547.852C327.331 551.652 319.208 553.552 309.555 553.552C299.843 553.552 291.69 551.713 285.095 548.033C278.5 544.294 273.524 539.107 270.167 532.472C266.809 525.837 265.131 518.147 265.131 509.401V425.714H289.771V502.435C289.771 513.111 291.21 521.133 294.088 526.501C296.965 531.809 302.121 534.462 309.555 534.462C317.05 534.462 322.235 531.809 325.113 526.501C327.991 521.133 329.43 513.111 329.43 502.435V425.714H354.16Z" fill="#1B83B8"/>
<path d="M463.713 514.92C463.713 522.52 461.764 529.215 457.867 535.005C454.03 540.796 448.485 545.349 441.231 548.667C433.976 551.924 425.193 553.552 414.882 553.552C404.09 553.552 394.827 551.954 387.094 548.757C379.36 545.5 372.885 541.338 367.669 536.272L380.619 521.706C385.115 525.747 390.151 528.913 395.727 531.205C401.302 533.497 407.567 534.643 414.522 534.643C418.958 534.643 422.945 533.95 426.482 532.563C430.08 531.175 432.897 529.155 434.936 526.501C437.034 523.787 438.083 520.469 438.083 516.549C438.083 513.111 437.364 510.216 435.925 507.863C434.486 505.511 431.998 503.4 428.461 501.53C424.984 499.661 420.127 497.791 413.892 495.921C404.72 493.086 397.166 489.98 391.23 486.602C385.295 483.164 380.889 479.123 378.011 474.479C375.133 469.774 373.694 464.225 373.694 457.832C373.694 450.655 375.673 444.472 379.63 439.285C383.586 434.038 388.922 430.027 395.637 427.252C402.411 424.417 409.965 423 418.299 423C427.531 423 435.655 424.357 442.67 427.071C449.684 429.725 455.859 433.525 461.195 438.471L448.875 452.494C444.618 448.815 440.002 446.101 435.026 444.352C430.109 442.602 425.103 441.728 420.007 441.728C415.991 441.728 412.394 442.271 409.216 443.356C406.099 444.442 403.64 446.04 401.842 448.151C400.043 450.262 399.144 452.946 399.144 456.204C399.144 459.159 399.953 461.692 401.572 463.803C403.251 465.854 406.099 467.784 410.115 469.593C414.132 471.343 419.648 473.333 426.662 475.565C434.036 477.796 440.481 480.48 445.997 483.617C451.572 486.753 455.919 490.824 459.037 495.831C462.154 500.776 463.713 507.14 463.713 514.92Z" fill="#1B83B8"/>
<path d="M312.671 84.7022C301.744 59.973 281.86 47.5079 254.396 46C228.31 47.3068 207.835 59.4704 196.81 84.8028C185.686 110.437 189.427 135.166 208.228 155.874C214.528 162.81 214.233 166.831 209.902 174.17C191.1 205.433 172.889 236.998 154.58 268.462C151.725 273.288 147.296 278.012 155.466 282.536C163.144 286.859 164.522 280.324 166.983 276.102C185.686 244.336 204.488 212.671 222.797 180.603C226.735 173.768 229.688 172.159 237.76 174.471C263.353 181.709 285.896 174.672 303.122 153.964C320.349 133.256 323.499 109.331 312.671 84.7022ZM254.297 162.509C227.128 162.107 205.669 139.388 205.866 111.241C206.063 83.0938 228.014 60.9783 255.38 61.1793C282.549 61.3804 304.008 83.898 303.91 112.246C303.614 139.891 281.072 162.911 254.297 162.509Z" fill="#1B83B8"/>
<path d="M301.744 341.444C264.141 341.444 226.538 341.243 188.935 341.645C181.65 341.745 178.796 339.835 177.024 332.196C168.46 296.811 133.022 276.002 99.1596 285.753C69.5299 294.297 49.2518 323.751 52.3034 354.01C55.6503 387.283 79.669 411.812 111.169 414.224C142.571 416.637 169.542 396.632 177.319 364.464C178.894 357.729 181.552 356.121 187.753 356.221C206.752 356.623 225.75 356.322 244.749 356.322C263.747 356.322 282.746 356.422 301.744 356.221C306.567 356.221 312.867 358.232 313.261 349.486C313.753 340.238 307.453 341.444 301.744 341.444ZM114.417 399.447C87.2487 398.643 65.5925 375.22 66.5768 347.576C67.5612 319.529 90.1034 297.715 117.174 298.52C144.441 299.324 165.605 322.344 164.916 350.391C164.325 378.136 141.586 400.251 114.417 399.447Z" fill="#1B83B8"/>
<path d="M451.763 337.523C446.349 301.234 409.73 275.901 374.292 285.451C364.449 288.065 361.2 285.351 356.869 277.51C339.938 246.548 322.317 215.988 304.894 185.328C302.433 180.905 300.858 174.672 293.377 178.693C285.403 183.016 289.538 187.942 292.392 192.968C310.111 224.432 327.633 255.897 345.844 287.06C349.978 294.096 349.486 297.816 343.678 303.445C331.078 315.609 325.566 331.391 325.369 343.555C325.467 387.283 357.066 417.139 394.177 414.124C431.682 411.108 457.571 376.728 451.763 337.523ZM388.271 399.447C361.2 399.145 339.446 376.125 339.839 348.179C340.233 320.233 362.382 298.218 389.747 298.419C416.916 298.721 438.474 321.54 438.08 349.687C437.686 377.733 415.735 399.749 388.271 399.447Z" fill="#1B83B8"/>
</svg>
